<?xml version="1.0" encoding="UTF-8" standalone="no"?>
<!-- Created with Inkscape (http://www.inkscape.org/) -->

<svg
   xmlns:dc="http://purl.org/dc/elements/1.1/"
   xmlns:cc="http://creativecommons.org/ns#"
   xmlns:rdf="http://www.w3.org/1999/02/22-rdf-syntax-ns#"
   xmlns:svg="http://www.w3.org/2000/svg"
   xmlns="http://www.w3.org/2000/svg"
   xmlns:sodipodi="http://sodipodi.sourceforge.net/DTD/sodipodi-0.dtd"
   xmlns:inkscape="http://www.inkscape.org/namespaces/inkscape"
   width="210mm"
   height="297mm"
   viewBox="0 0 210 297"
   version="1.1"
   id="svg3133"
   inkscape:version="0.92.4 (5da689c313, 2019-01-14)"
   sodipodi:docname="drawing-4.svg">
  <defs
     id="defs3127" />
  <sodipodi:namedview
     id="base"
     pagecolor="#ffffff"
     bordercolor="#666666"
     borderopacity="1.0"
     inkscape:pageopacity="0.0"
     inkscape:pageshadow="2"
     inkscape:zoom="0.35"
     inkscape:cx="350"
     inkscape:cy="560"
     inkscape:document-units="mm"
     inkscape:current-layer="layer1"
     showgrid="false"
     inkscape:window-width="1366"
     inkscape:window-height="705"
     inkscape:window-x="-8"
     inkscape:window-y="-8"
     inkscape:window-maximized="1" />
  <metadata
     id="metadata3130">
    <rdf:RDF>
      <cc:Work
         rdf:about="">
        <dc:format>image/svg+xml</dc:format>
        <dc:type
           rdf:resource="http://purl.org/dc/dcmitype/StillImage" />
        <dc:title></dc:title>
      </cc:Work>
    </rdf:RDF>
  </metadata>
  <g
     inkscape:label="Layer 1"
     inkscape:groupmode="layer"
     id="layer1">
    <g
       transform="rotate(-5.0966426,929.14606,-5498.7605)"
       id="g3104">
      <path
         sodipodi:nodetypes="scssscs"
         inkscape:connector-curvature="0"
         id="path6326"
         d="m -399.64657,26.932463 c 2.5637,-4.537311 0.55949,-23.8917111 -4.43857,-30.7832715 -14.54734,-20.0378405 -34.0198,-13.8947615 -45.76984,-5.004141 -8.38893,6.34746 -9.31428,22.8655305 -3.73741,33.3150005 1.75952,3.29684 4.16628,5.9896 7.1901,7.56826 5.14707,2.687151 12.33694,4.310952 26.91368,2.77241 11.81503,-1.221869 16.9258,-2.706999 19.84204,-7.868258 z"
         style="fill:none;stroke:none;stroke-width:0.25857788px;stroke-linecap:butt;stroke-linejoin:miter;stroke-opacity:1" />
      <path
         sodipodi:nodetypes="sscsss"
         inkscape:connector-curvature="0"
         id="path6328"
         d="m -384.98263,26.786521 c -2.01321,-2.41223 -3.14131,-6.02298 -3.62208,-10.025139 -1.02614,-8.5422321 0.89682,-18.8675515 3.45712,-23.1277325 9.28552,-13.6279685 29.93711,-15.8562985 41.474,-1.258699 5.67618,7.18206898 8.42142,22.3501325 -2.45706,32.4519425 -14.94553,13.87847 -32.54182,9.520528 -38.85198,1.959628 z"
         style="fill:none;stroke:none;stroke-width:0.21779531px;stroke-linecap:butt;stroke-linejoin:miter;stroke-opacity:1" />
      <path
         sodipodi:nodetypes="ccccscsc"
         inkscape:connector-curvature="0"
         id="path6330"
         d="m -411.56972,44.433864 c -13.25771,-1.05699 -36.67668,-1.636593 -37.87965,6.26465 -1.96322,19.95373 1.98805,44.614932 18.61918,58.262256 7.62551,7.11531 27.04591,12.00129 29.36194,10.92383 2.31604,-1.07747 3.21739,-21.782254 3.46582,-27.077494 0.32357,-6.896222 -0.3379,-24.909222 -0.58794,-27.662692 -0.15015,-1.59678 -0.31914,-3.10013 -0.51539,-4.51045 -1.4654,-10.53075 -4.45098,-15.87441 -12.46396,-16.2001 z"
         style="fill:none;stroke:none;stroke-width:0.24172482px;stroke-linecap:butt;stroke-linejoin:miter;stroke-opacity:1" />
      <path
         sodipodi:nodetypes="ccccscsc"
         inkscape:connector-curvature="0"
         id="path6332"
         d="m -375.26493,42.996504 c 14.28006,-1.994182 39.58991,-4.096543 41.41358,4.54402 3.44225,21.88791 0.79356,49.338022 -16.30658,65.431076 -7.78393,8.32513 -28.48154,14.92797 -31.0595,13.88413 -2.57796,-1.04385 -4.92044,-23.82656 -5.5389,-29.652124 -0.80548,-7.586862 -1.27871,-27.497972 -1.18984,-30.550892 0.0572,-1.77074 0.14079,-3.43961 0.26008,-5.00758 0.89091,-11.7078 3.76965,-17.78878 12.42118,-18.64863 z"
         style="fill:none;stroke:none;stroke-width:0.26458332px;stroke-linecap:butt;stroke-linejoin:miter;stroke-opacity:1" />
      <path
         inkscape:connector-curvature="0"
         id="path6334"
         d="m -437.30769,35.564531 c -4.11569,-0.652533 -7.97499,-2.011262 -10.78981,-3.798769 -1.65183,-1.048956 -4.38214,-3.986555 -5.57874,-6.002269 -1.82403,-3.072637 -3.33765,-7.619359 -3.9315,-11.809615 -0.4399,-3.10397 -0.29615,-8.5412309 0.30035,-11.360581 0.90347,-4.2702448 2.4908,-7.7521233 4.70596,-10.3226922 2.78909,-3.2366388 10.01414,-7.4574628 15.88127,-9.2777468 8.27413,-2.567068 15.93717,-1.887845 22.75434,2.016856 5.37178,3.076818 10.70114,8.6872035 12.83965,13.5167027 2.3727,5.3583848 3.93734,13.3442603 4.04596,20.6504623 0.0906,6.094258 -0.68533,8.491801 -3.58213,11.068364 -3.19925,2.84558 -7.60073,4.1027 -18.16016,5.186784 -7.20308,0.739512 -14.33412,0.790632 -18.48519,0.132504 z"
         style="opacity:1;fill:#5fd3bc;fill-opacity:1;stroke:none;stroke-width:1.17522645;stroke-miterlimit:4;stroke-dasharray:none;stroke-opacity:1" />
      <path
         inkscape:connector-curvature="0"
         id="path6336"
         d="m -371.70352,36.007531 c -3.87708,-0.603715 -8.18037,-2.344024 -10.98735,-4.443415 -3.99117,-2.985077 -5.93507,-6.893577 -6.80686,-13.68617 -0.22314,-1.738561 -0.21392,-3.161339 0.0512,-7.8935977 0.28529,-5.1003999 0.39768,-6.0875018 0.96085,-8.474825 0.92256,-3.9105197 2.05053,-6.6927578 3.50104,-8.6355498 3.2782,-4.3907515 8.71783,-8.1364735 14.13451,-9.7329965 5.74008,-1.69184 12.40568,-1.292279 17.91973,1.07418 4.74624,2.036929 9.60893,6.209157 12.23446,10.4972579 4.83822,7.901964 5.06443,18.5839351 0.55845,26.3715651 -2.87568,4.969968 -8.87469,9.957727 -15.39498,12.799848 -4.69292,2.045582 -11.19173,2.899059 -16.17105,2.123703 z"
         style="opacity:1;fill:#ffffff;fill-opacity:0.94883722;stroke:none;stroke-width:1.19195795;stroke-miterlimit:4;stroke-dasharray:none;stroke-opacity:1" />
      <path
         inkscape:connector-curvature="0"
         id="path6338"
         d="m -402.01262,125.01144 c -7.59965,-1.3648 -17.80146,-5.10772 -23.43935,-8.59961 -3.72559,-2.3075 -8.69972,-6.98681 -11.7137,-11.01943 -8.30246,-11.10852 -12.64719,-25.541763 -13.03163,-43.291263 -0.0803,-3.704069 0.34948,-11.465887 0.69032,-12.473581 0.41393,-1.222898 2.06164,-2.690419 4.00303,-3.565262 5.56359,-2.507128 13.96671,-3.278736 29.00248,-2.663138 8.93902,0.365985 10.5127,0.552888 12.68611,1.506518 5.73153,2.514873 8.35131,10.268328 9.05877,26.810238 0.67594,15.80536 0.55965,25.610653 -0.44332,37.376778 -0.88664,10.40149 -1.67808,14.99407 -2.74908,15.9524 -0.3427,0.30666 -2.25721,0.29078 -4.06388,-0.0337 z"
         style="opacity:1;fill:#80b3ff;fill-opacity:1;stroke:none;stroke-width:1.21651125;stroke-miterlimit:4;stroke-dasharray:none;stroke-opacity:1" />
      <path
         inkscape:connector-curvature="0"
         id="path6340"
         d="m -381.53151,129.13646 c -0.57498,-0.64259 -0.86154,-1.36931 -1.482,-3.75857 -1.14173,-4.39647 -2.44197,-12.89441 -3.58728,-23.44513 -0.86101,-7.931879 -1.36949,-17.751749 -1.62101,-31.305688 -0.14642,-7.890988 0.66806,-15.694609 2.07363,-19.867493 1.50715,-4.47446 4.40744,-7.469322 8.22256,-8.490701 2.61887,-0.701124 13.43399,-1.891459 20.26118,-2.229983 12.94997,-0.64212 21.63036,0.802915 24.57215,4.090554 1.01,1.12873 1.20226,1.747207 1.64959,5.306608 0.90298,7.184944 1.11449,12.974273 0.7311,20.010238 -0.67155,12.32384 -3.23902,22.499652 -8.00652,31.732645 -3.38805,6.56145 -9.2408,13.54785 -14.44673,17.24498 -6.93403,4.92439 -20.43173,10.45519 -27.02177,11.07243 -0.78825,0.0738 -1.00986,0.0145 -1.3449,-0.35989 z"
         style="opacity:1;fill:#55ff55;fill-opacity:1;stroke:none;stroke-width:1.17890751;stroke-miterlimit:4;stroke-dasharray:none;stroke-opacity:1" />
      <path
         sodipodi:nodetypes="csccc"
         inkscape:connector-curvature="0"
         id="path6342"
         d="m -464.45163,-28.820499 c 0,0 24.25693,6.97455 70.94911,6.00554 46.69217,-0.96901 65.26156,-10.87627 65.26156,-10.87627 11.80178,140.292149 6.54682,149.258609 -61.12335,179.765899 -73.17218,-20.46266 -78.98461,-57.087986 -75.08732,-174.895169 z"
         style="fill:none;stroke:none;stroke-width:0.24248645px;stroke-linecap:butt;stroke-linejoin:miter;stroke-opacity:1" />
      <path
         sodipodi:nodetypes="sssssccssscssssscscsssscssssscccsssscscsssscssssssssssssssssssssss"
         inkscape:connector-curvature="0"
         id="path6344"
         d="m -395.06412,144.08635 c -22.56208,-7.04254 -36.48477,-14.95844 -47.02247,-26.73514 -10.34769,-11.56436 -16.648,-26.253016 -19.97871,-48.580236 -1.94097,-13.01111 -2.87347,-28.616253 -3.01081,-47.708753 -0.0813,-11.2971681 0.16697,-25.9439495 0.79342,-46.81272 l 0.082,-2.73125 0.6599,0.18014 c 0.36293,0.0991 2.66437,0.5891 5.11428,1.08894 17.56875,3.58444 42.99015,5.29822 67.71669,4.56511 24.2647,-0.71941 44.93726,-3.97207 59.07902,-9.29561 1.41413,-0.53234 2.72657,-1.08259 2.91654,-1.2228 0.24918,-0.1839 0.33941,-0.14717 0.32392,0.13186 -0.0118,0.21272 0.40528,5.64635 0.92687,12.07473 3.91048,48.195181 4.8004,76.015373 3.00527,93.949303 -1.53793,15.36445 -3.99894,24.490102 -9.0123,33.418496 -7.29474,12.99136 -18.17712,21.48527 -42.39196,33.08773 -4.75692,2.27927 -13.54985,6.34534 -13.65959,6.31653 -0.0396,-0.0102 -2.53357,-0.78726 -5.54207,-1.72633 z m 17.33669,-17.21726 c 3.5176,-0.71565 7.93436,-2.211 12.74268,-4.31418 7.61066,-3.32895 11.74922,-5.97993 15.77846,-10.10699 8.49951,-8.70586 13.49292,-19.348924 15.82336,-33.726186 0.88246,-5.44431 1.29132,-16.28305 0.83356,-22.0979 -0.41186,-5.23176 -0.96304,-9.19924 -1.41924,-10.21592 -0.82977,-1.8492 -3.1781,-3.29616 -7.07,-4.356281 -2.98972,-0.81439 -12.70356,-1.266441 -18.898,-0.879462 -9.83399,0.61436 -17.96662,1.744003 -20.20673,2.806743 -6.15559,2.9203 -8.4077,11.36106 -7.97115,29.87531 0.3191,13.534 0.64616,19.358722 1.54333,27.486246 1.56196,14.14997 3.2082,23.19469 4.57751,25.14946 0.61232,0.87414 1.46206,0.94966 4.26622,0.37916 z m -23.16952,-7.17837 c 1.19212,-1.67129 2.00968,-7.84366 2.74387,-20.715684 0.60566,-10.619022 0.62057,-12.399322 0.20752,-24.897622 -0.26116,-7.90321 -0.39855,-9.86497 -0.96889,-13.83331 -1.35951,-9.45942 -4.00126,-13.9675 -9.05967,-15.46008 -1.2781,-0.37713 -3.29429,-0.58737 -8.29306,-0.86474 -17.92356,-0.99454 -28.99469,0.52396 -32.33674,4.43534 -0.67076,0.78505 -0.82894,1.26143 -1.10489,3.32773 -0.44713,3.34797 -0.49431,11.85694 -0.0909,16.40188 1.34571,15.16315 6.05945,27.479462 13.86854,36.236486 5.25735,5.89552 9.75297,8.9246 17.9281,12.07968 5.27971,2.03763 10.83591,3.46933 14.39313,3.70876 2.11704,0.14248 2.33714,0.10852 2.71304,-0.41844 z M -426.0629,35.541031 c 5.08963,-0.24656 11.10179,-0.917128 15.12118,-1.686528 7.72396,-1.478542 11.4913,-4.463622 12.33937,-9.777222 1.05022,-6.58009 -0.70195,-18.6543111 -3.66383,-25.2475405 -1.46167,-3.253761 -5.66706,-8.16817 -9.29908,-10.8669105 -4.51452,-3.35446 -8.98431,-4.9722 -14.59948,-5.28394 -6.31723,-0.35072 -12.39847,1.24796 -18.87828,4.96283 -5.96147,3.4177215 -8.55268,6.1281715 -10.42209,10.9016705 -2.45216,6.2615894 -2.49437,15.0964905 -0.10504,21.9866105 1.14148,3.291689 2.52141,5.700501 4.64278,8.104442 1.60935,1.823699 2.41649,2.492129 4.18016,3.461758 5.04945,2.77608 11.68321,3.880882 20.68431,3.44483 z m 60.71211,-1.54178 c 6.52848,-0.541399 12.60276,-3.18947 18.00552,-7.849479 5.15901,-4.44977 7.47954,-8.386281 8.53196,-14.47352 0.83224,-4.8138111 0.2,-9.7778311 -1.85688,-14.5787615 -2.92071,-6.8172 -9.16281,-12.1015105 -16.64609,-14.0919205 -3.5424,-0.94221 -8.6306,-1.04473 -12.0971,-0.24375 -7.24642,1.6744 -14.20826,6.73905 -16.66666,12.1247905 -1.46583,3.211251 -2.65323,8.8855714 -2.9348,14.0247114 -0.46825,8.5427001 1.02823,14.9447191 4.34127,18.5746891 4.12556,4.520239 11.87141,7.13119 19.32278,6.51324 z"
         style="opacity:1;fill:#483737;fill-opacity:0.99447512;stroke:none;stroke-width:1.5;stroke-miterlimit:4;stroke-dasharray:none;stroke-opacity:1" />
      <g
         aria-label="t"
         style="font-style:normal;font-weight:normal;font-size:10.58333302px;line-height:1.25;font-family:sans-serif;letter-spacing:0px;word-spacing:0px;fill:#ffffff;fill-opacity:1;stroke:#dee3db;stroke-width:0.26458332;stroke-opacity:1"
         id="g3090"
         transform="matrix(2.1912979,0.12160935,-0.24875885,3.2784722,-441.2964,-21.805209)">
        <path
           d="m 25.808889,21.071028 c -0.778489,1.908454 0.687164,9.961974 0.687164,9.961974 0.941402,4.188473 1.173435,8.842452 3.841598,13.260831 1.142862,0.902885 4.153648,0.06978 5.07876,-0.591178 l 0.77928,0.940511 c 0,0 -0.56069,1.81869 -1.919394,2.668963 -1.038028,0.639628 -2.81961,1.034878 -3.911774,1.039338 C 25.159216,48.054123 24.363255,46.997724 23.343632,44.479998 22.931599,43.709675 23.09207,35.542747 23.09207,34.0021 l -0.423301,-5.457075 c 0,0 -0.714011,-6.459267 -1.786628,-8.887214 C 14.632885,18.614097 9.3906315,18.685755 -0.78237878,20.255688 L -1.9230137,17.456467 c 7.3586403,0.522227 20.9476647,0.205285 22.8051547,-1.492858 1.631282,-5.570975 -1.418089,-8.6787345 -2.826199,-11.9412839 2.078081,-0.8778104 6.001923,-1.675709 8.106648,-2.0325917 0,0 -1.979496,2.5473802 -2.095805,6.9470369 -0.06095,2.3056697 -0.06653,4.7326477 1.83373,7.0268387 1.727458,0.631933 7.308605,0.384616 10.936416,-0.05052 3.62781,-0.435133 7.22817,-1.537115 9.296251,-2.364389 0.0066,1.790732 1.765904,3.730735 1.765904,3.730735 -9.043953,-0.332834 -12.953996,-0.188892 -18.401024,1.023129 -2.885693,0.946098 -3.508063,1.56255 -3.689173,2.768464 z"
           style="font-style:normal;font-variant:normal;font-weight:normal;font-stretch:normal;font-size:55.03333282px;font-family:'Book Antiqua';-inkscape-font-specification:'Book Antiqua';fill:#ffffff;fill-opacity:1;stroke:#dee3db;stroke-width:0.26458332;stroke-opacity:1"
           id="path3088"
           inkscape:connector-curvature="0"
           sodipodi:nodetypes="ccccccccccccccccscscccc" />
      </g>
    </g>
  </g>
</svg>
