<?xml version="1.0" encoding="UTF-8" standalone="no"?>
<!-- Created with Inkscape (http://www.inkscape.org/) -->

<svg
   xmlns:dc="http://purl.org/dc/elements/1.1/"
   xmlns:cc="http://creativecommons.org/ns#"
   xmlns:rdf="http://www.w3.org/1999/02/22-rdf-syntax-ns#"
   xmlns:svg="http://www.w3.org/2000/svg"
   xmlns="http://www.w3.org/2000/svg"
   xmlns:sodipodi="http://sodipodi.sourceforge.net/DTD/sodipodi-0.dtd"
   xmlns:inkscape="http://www.inkscape.org/namespaces/inkscape"
   width="150"
   height="150"
   viewBox="0 0 39.687466 39.687466"
   version="1.1"
   id="svg3191"
   inkscape:version="0.92.4 (5da689c313, 2019-01-14)"
   sodipodi:docname="drawing.svg">
  <defs
     id="defs3185" />
  <sodipodi:namedview
     id="base"
     pagecolor="#ffffff"
     bordercolor="#666666"
     borderopacity="1.0"
     inkscape:pageopacity="0.0"
     inkscape:pageshadow="2"
     inkscape:zoom="2.8"
     inkscape:cx="64.709018"
     inkscape:cy="66.174434"
     inkscape:document-units="mm"
     inkscape:current-layer="layer1"
     showgrid="false"
     units="px"
     inkscape:window-width="1366"
     inkscape:window-height="705"
     inkscape:window-x="-8"
     inkscape:window-y="-8"
     inkscape:window-maximized="1" />
  <metadata
     id="metadata3188">
    <rdf:RDF>
      <cc:Work
         rdf:about="">
        <dc:format>image/svg+xml</dc:format>
        <dc:type
           rdf:resource="http://purl.org/dc/dcmitype/StillImage" />
        <dc:title></dc:title>
      </cc:Work>
    </rdf:RDF>
  </metadata>
  <g
     inkscape:label="Layer 1"
     inkscape:groupmode="layer"
     id="layer1"
     transform="translate(0,-257.31284)">
    <g
       id="g3310"
       transform="matrix(3.0355864,0,0,3.0355864,-4.0851462,-600.26871)">
      <path
         sodipodi:nodetypes="scssscs"
         inkscape:connector-curvature="0"
         id="path6326"
         d="m 7.0485326,286.60763 c 0.1865314,-0.41175 -0.1357609,-2.06846 -0.6206775,-2.62535 -1.4112373,-1.6191 -3.0462477,-0.93831 -3.9928993,-0.0797 -0.6758609,0.61304 -0.6285268,2.04726 -0.066187,2.90709 0.1774197,0.27127 0.4061039,0.48537 0.6795147,0.59847 0.4653933,0.19249 1.0990829,0.27739 2.3466023,0.0321 1.0113584,-0.1966 1.4414657,-0.36429 1.6536474,-0.83267 z"
         style="fill:none;stroke:none;stroke-width:0.02242882px;stroke-linecap:butt;stroke-linejoin:miter;stroke-opacity:1" />
      <path
         sodipodi:nodetypes="sscsss"
         inkscape:connector-curvature="0"
         id="path6328"
         d="m 8.3143165,286.48203 c -0.1925212,-0.19289 -0.3178076,-0.49616 -0.3901831,-0.83822 -0.1544771,-0.73011 -0.067903,-1.637 0.1204702,-2.02479 0.6972225,-1.24895 2.4642714,-1.6006 3.5734964,-0.42833 0.545742,0.57677 0.899799,1.86608 0.03778,2.82266 -1.184295,1.31421 -2.7381278,1.07329 -3.3415615,0.46868 z"
         style="fill:none;stroke:none;stroke-width:0.01889138px;stroke-linecap:butt;stroke-linejoin:miter;stroke-opacity:1" />
      <path
         sodipodi:nodetypes="ccccscsc"
         inkscape:connector-curvature="0"
         id="path6330"
         d="m 6.1532758,288.21156 c -1.1535603,0.0109 -3.1813361,0.14123 -3.2243848,0.83313 -0.01586,1.73905 0.5155425,3.83924 2.0575688,4.89016 0.7136423,0.55598 2.42914,0.82847 2.6209337,0.71753 0.1917945,-0.11094 0.1101261,-1.90669 0.090787,-2.3661 -0.025184,-0.5983 -0.2211324,-2.14946 -0.2639519,-2.38542 -0.025276,-0.1368 -0.051461,-0.26538 -0.079283,-0.38571 -0.2077501,-0.89853 -0.5068687,-1.33719 -1.2016698,-1.30359 z"
         style="fill:none;stroke:none;stroke-width:0.020967px;stroke-linecap:butt;stroke-linejoin:miter;stroke-opacity:1" />
      <path
         sodipodi:nodetypes="ccccscsc"
         inkscape:connector-curvature="0"
         id="path6332"
         d="m 9.2787955,287.80763 c 1.2183765,-0.28232 3.3888505,-0.65898 3.6129895,0.0734 0.466055,1.86452 0.448737,4.25651 -0.904644,5.77865 -0.608352,0.77924 -2.3456682,1.50918 -2.5764375,1.43886 -0.2307693,-0.0703 -0.6087039,-2.0206 -0.7070256,-2.51915 -0.1280514,-0.64926 -0.3223627,-2.36586 -0.338209,-2.6303 -0.0087,-0.15343 -0.01434,-0.29826 -0.016116,-0.43465 -0.013244,-1.01837 0.1886111,-1.56593 0.9294447,-1.70688 z"
         style="fill:none;stroke:none;stroke-width:0.02294973px;stroke-linecap:butt;stroke-linejoin:miter;stroke-opacity:1" />
      <path
         inkscape:connector-curvature="0"
         id="path6334"
         d="m 3.8612702,287.64361 c -0.360608,-0.0247 -0.7045065,-0.11231 -0.96147,-0.24506 -0.1507946,-0.0779 -0.4093188,-0.31066 -0.5282326,-0.47558 -0.1812656,-0.25141 -0.3470716,-0.63257 -0.4306662,-0.99002 -0.061923,-0.26477 -0.091401,-0.73564 -0.061591,-0.98382 0.045152,-0.3759 0.1554613,-0.68895 0.327035,-0.9281 0.2160267,-0.30112 0.8077197,-0.72147 1.3005911,-0.92394 0.6950726,-0.28554 1.3623638,-0.28591 1.9814291,-9.6e-4 0.4878099,0.22443 0.9914774,0.66808 1.2134505,1.06885 0.2462815,0.44467 0.4429959,1.12256 0.5086786,1.75295 0.054787,0.52582 0.00622,0.73894 -0.2241946,0.98387 -0.2544762,0.2705 -0.6250605,0.41303 -1.5290016,0.58805 -0.6166202,0.1194 -1.2323209,0.17876 -1.5960289,0.15389 z"
         style="opacity:1;fill:#5fd3bc;fill-opacity:1;stroke:none;stroke-width:0.10193811;stroke-miterlimit:4;stroke-dasharray:none;stroke-opacity:1" />
      <path
         inkscape:connector-curvature="0"
         id="path6336"
         d="m 9.532634,287.17637 c -0.3396169,-0.0223 -0.7248148,-0.13948 -0.9835042,-0.29923 -0.3678235,-0.22715 -0.5658861,-0.54985 -0.6935461,-1.12998 -0.032675,-0.14849 -0.042842,-0.27148 -0.056401,-0.68237 -0.014654,-0.44286 -0.01255,-0.52901 0.017711,-0.7396 0.049573,-0.34497 0.1255866,-0.59404 0.2359349,-0.77306 0.2493908,-0.4046 0.6904912,-0.77013 1.1461697,-0.94981 0.4828844,-0.1904 1.0618457,-0.20724 1.5564737,-0.0453 0.425753,0.13941 0.87802,0.46241 1.137898,0.81265 0.478893,0.64542 0.580747,1.56655 0.251455,2.2741 -0.210151,0.45155 -0.69001,0.92869 -1.231438,1.22448 -0.389687,0.21289 -0.9445831,0.33671 -1.3807531,0.30809 z"
         style="opacity:1;fill:#ffffff;fill-opacity:0.94883722;stroke:none;stroke-width:0.10338939;stroke-miterlimit:4;stroke-dasharray:none;stroke-opacity:1" />
      <path
         inkscape:connector-curvature="0"
         id="path6338"
         d="m 7.5998671,295.09952 c -0.6670972,-0.0594 -1.577336,-0.30413 -2.0913351,-0.56237 -0.3396574,-0.17064 -0.8054598,-0.5366 -1.0969297,-0.86177 -0.8028982,-0.89576 -1.2894824,-2.10926 -1.4594661,-3.63978 -0.035479,-0.3194 -0.058157,-0.99331 -0.036475,-1.083 0.026339,-0.10884 0.1573867,-0.24832 0.3183743,-0.33886 0.4613542,-0.25948 1.181406,-0.3909 2.4851827,-0.45357 0.7751174,-0.0373 0.9125175,-0.0333 1.1076401,0.0324 0.5145607,0.17311 0.8006444,0.82278 0.9892307,2.24649 0.1801876,1.36032 0.2456958,2.20836 0.2497075,3.23263 0.00355,0.90548 -0.029442,1.30836 -0.1145881,1.39941 -0.027245,0.0291 -0.1927737,0.0425 -0.3513634,0.0285 z"
         style="opacity:1;fill:#80b3ff;fill-opacity:1;stroke:none;stroke-width:0.10551913;stroke-miterlimit:4;stroke-dasharray:none;stroke-opacity:1" />
      <path
         inkscape:connector-curvature="0"
         id="path6340"
         d="m 9.4011425,295.29808 c -0.054627,-0.051 -0.084985,-0.11166 -0.157001,-0.3133 -0.1325183,-0.37104 -0.3103354,-1.09522 -0.4905849,-1.99793 -0.1355075,-0.67865 -0.2551057,-1.52314 -0.3812765,-2.69221 -0.073455,-0.68062 -0.063218,-1.36109 0.026063,-1.73245 0.095734,-0.39818 0.3232308,-0.67928 0.6449723,-0.79692 0.2208578,-0.0807 1.1460716,-0.26693 1.7333056,-0.34879 1.113881,-0.15526 1.874968,-0.0973 2.15446,0.16407 0.09596,0.0898 0.117334,0.14169 0.183409,0.44576 0.133378,0.61379 0.196262,1.11234 0.217354,1.72318 0.03694,1.0699 -0.106466,1.96884 -0.447215,2.80327 -0.242155,0.59299 -0.693977,1.24168 -1.11526,1.60122 -0.561129,0.47888 -1.684661,1.06073 -2.2492599,1.16483 -0.067533,0.0124 -0.087136,0.009 -0.1189674,-0.0208 z"
         style="opacity:1;fill:#55ff55;fill-opacity:1;stroke:none;stroke-width:0.10225742;stroke-miterlimit:4;stroke-dasharray:none;stroke-opacity:1" />
    </g>
    <path
       style="fill:none;stroke:none;stroke-width:0.02103306px;stroke-linecap:butt;stroke-linejoin:miter;stroke-opacity:1"
       d="m 1.0200154,282.29015 c 0,0 2.149449,0.41566 6.1760086,-0.0279 4.026559,-0.44351 5.554542,-1.44255 5.554542,-1.44255 2.100657,12.02977 1.71574,12.84493 -3.8956294,16.00208 -6.4794733,-1.20406 -7.2638633,-4.32357 -7.8349212,-14.53169 z"
       id="path6342"
       inkscape:connector-curvature="0"
       sodipodi:nodetypes="csccc" />
  </g>
</svg>
