<?xml version="1.0" encoding="UTF-8" standalone="no"?>
<!-- Created with Inkscape (http://www.inkscape.org/) -->

<svg
   xmlns:dc="http://purl.org/dc/elements/1.1/"
   xmlns:cc="http://creativecommons.org/ns#"
   xmlns:rdf="http://www.w3.org/1999/02/22-rdf-syntax-ns#"
   xmlns:svg="http://www.w3.org/2000/svg"
   xmlns="http://www.w3.org/2000/svg"
   xmlns:sodipodi="http://sodipodi.sourceforge.net/DTD/sodipodi-0.dtd"
   xmlns:inkscape="http://www.inkscape.org/namespaces/inkscape"
   width="210mm"
   height="297mm"
   viewBox="0 0 210 297"
   version="1.1"
   id="svg116"
   inkscape:version="0.92.4 (5da689c313, 2019-01-14)"
   sodipodi:docname="drawing-3.svg">
  <defs
     id="defs110" />
  <sodipodi:namedview
     id="base"
     pagecolor="#ffffff"
     bordercolor="#666666"
     borderopacity="1.0"
     inkscape:pageopacity="0.0"
     inkscape:pageshadow="2"
     inkscape:zoom="0.35"
     inkscape:cx="350"
     inkscape:cy="560"
     inkscape:document-units="mm"
     inkscape:current-layer="layer1"
     showgrid="false"
     inkscape:window-width="1366"
     inkscape:window-height="705"
     inkscape:window-x="-8"
     inkscape:window-y="-8"
     inkscape:window-maximized="1" />
  <metadata
     id="metadata113">
    <rdf:RDF>
      <cc:Work
         rdf:about="">
        <dc:format>image/svg+xml</dc:format>
        <dc:type
           rdf:resource="http://purl.org/dc/dcmitype/StillImage" />
        <dc:title></dc:title>
      </cc:Work>
    </rdf:RDF>
  </metadata>
  <g
     inkscape:label="Layer 1"
     inkscape:groupmode="layer"
     id="layer1">
    <g
       id="g1109"
       transform="matrix(2.6498208,0,0,2.6498208,-803.28888,25.941215)"
       inkscape:export-xdpi="96"
       inkscape:export-ydpi="96">
      <g
         inkscape:export-ydpi="96"
         inkscape:export-xdpi="96"
         transform="matrix(1.0202344,0,0,1.0585612,-6.3073524,-0.16458154)"
         id="g1094">
        <path
           sodipodi:nodetypes="scssscs"
           inkscape:connector-curvature="0"
           id="path270"
           d="m 338.36656,27.225491 c 1.03249,-1.827318 0.22533,-9.621946 -1.78754,-12.397394 -5.85868,-8.0698705 -13.70085,-5.595859 -18.43297,-2.015325 -3.37848,2.556322 -3.75115,9.208669 -1.50517,13.417001 0.70862,1.327741 1.6779,2.4122 2.89569,3.047977 2.07288,1.0822 4.96847,1.736156 10.83898,1.116537 4.75829,-0.492086 6.81655,-1.090194 7.99101,-3.168796 z"
           style="fill:none;stroke:none;stroke-width:0.10413747px;stroke-linecap:butt;stroke-linejoin:miter;stroke-opacity:1" />
        <path
           sodipodi:nodetypes="sscsss"
           inkscape:connector-curvature="0"
           id="path272"
           d="m 344.2722,27.166716 c -0.81079,-0.971481 -1.26511,-2.425645 -1.45873,-4.037441 -0.41326,-3.440226 0.36118,-7.598557 1.3923,-9.314266 3.73956,-5.4884131 12.05661,-6.3858318 16.70288,-0.506918 2.28598,2.892445 3.39157,9.001103 -0.98954,13.06942 -6.01904,5.589299 -13.10562,3.834217 -15.64691,0.789205 z"
           style="fill:none;stroke:none;stroke-width:0.08771303px;stroke-linecap:butt;stroke-linejoin:miter;stroke-opacity:1" />
        <path
           sodipodi:nodetypes="ccccscsc"
           inkscape:connector-curvature="0"
           id="path274"
           d="m 333.56474,34.273857 c -5.3393,-0.425683 -14.77086,-0.659108 -15.25534,2.522972 -0.79064,8.035998 0.80065,17.967841 7.49854,23.464047 3.07103,2.86556 10.89224,4.833299 11.82498,4.399372 0.93274,-0.433932 1.29574,-8.7724 1.39579,-10.90496 0.13032,-2.777325 -0.13609,-10.031729 -0.23678,-11.140638 -0.0604,-0.643073 -0.12852,-1.248521 -0.20757,-1.816502 -0.59015,-4.241066 -1.79254,-6.393125 -5.01962,-6.524291 z"
           style="fill:none;stroke:none;stroke-width:0.0973502px;stroke-linecap:butt;stroke-linejoin:miter;stroke-opacity:1" />
        <path
           sodipodi:nodetypes="ccccscsc"
           inkscape:connector-curvature="0"
           id="path276"
           d="m 348.18582,33.694986 c 5.75103,-0.803119 15.94411,-1.649807 16.67856,1.830021 1.3863,8.814953 0.31959,19.869978 -6.56717,26.351157 -3.13484,3.352792 -11.47043,6.011965 -12.50865,5.591577 -1.03823,-0.420392 -1.98162,-9.595707 -2.23069,-11.941844 -0.32439,-3.055467 -0.51498,-11.074299 -0.47918,-12.303807 0.0231,-0.713132 0.0567,-1.385241 0.10474,-2.016711 0.35879,-4.715102 1.51816,-7.164104 5.0024,-7.510393 z"
           style="fill:none;stroke:none;stroke-width:0.10655603px;stroke-linecap:butt;stroke-linejoin:miter;stroke-opacity:1" />
        <path
           inkscape:connector-curvature="0"
           id="path278"
           d="m 323.07005,31.26762 c -1.65227,-0.268357 -3.2016,-0.827136 -4.33163,-1.562252 -0.66312,-0.431385 -1.75922,-1.639478 -2.23961,-2.468447 -0.73226,-1.263626 -1.33991,-3.133476 -1.57831,-4.856728 -0.17659,-1.276516 -0.11889,-3.512601 0.12058,-4.672065 0.36269,-1.756146 0.99994,-3.188077 1.88923,-4.245228 1.11969,-1.331074 4.02021,-3.066897 6.37559,-3.8154922 3.3217,-1.0557123 6.39805,-0.7763801 9.13482,0.8294372 2.15653,1.265348 4.29602,3.57263 5.15453,5.558771 0.95254,2.203648 1.58067,5.487856 1.62427,8.492547 0.0364,2.506276 -0.27513,3.492272 -1.43806,4.551888 -1.28434,1.170251 -3.05133,1.687244 -7.29046,2.133077 -2.8917,0.304125 -5.75449,0.325148 -7.42095,0.0545 z"
           style="opacity:1;fill:#00ff00;fill-opacity:1;stroke:none;stroke-width:0.47752216;stroke-miterlimit:4;stroke-dasharray:none;stroke-opacity:1" />
        <path
           inkscape:connector-curvature="0"
           id="path280"
           d="m 349.55192,30.338728 c -1.46908,-0.228755 -3.09966,-0.888181 -4.16325,-1.683667 -1.51231,-1.131084 -2.24888,-2.612066 -2.57921,-5.185866 -0.0846,-0.658764 -0.081,-1.197872 0.0194,-2.990986 0.1081,-1.932608 0.15069,-2.306634 0.36408,-3.21122 0.34958,-1.481747 0.77697,-2.535973 1.32659,-3.272121 1.24215,-1.663713 3.30329,-3.083015 5.35575,-3.687959 2.17499,-0.6410603 4.70067,-0.4896613 6.79002,0.407022 1.79841,0.771818 3.64095,2.352728 4.63579,3.977545 1.83326,2.994157 1.91898,7.041693 0.21161,9.992526 -1.08963,1.883185 -3.36274,3.773112 -5.83336,4.850028 -1.77821,0.775097 -4.2407,1.098491 -6.12742,0.804698 z"
           style="opacity:1;fill:#ffffff;fill-opacity:0.94883722;stroke:none;stroke-width:0.45164824;stroke-miterlimit:4;stroke-dasharray:none;stroke-opacity:1" />
        <path
           inkscape:connector-curvature="0"
           id="path282"
           d="m 335.73117,65.201373 c -2.866,-0.516497 -6.71332,-1.932977 -8.83946,-3.254456 -1.40502,-0.873257 -3.28086,-2.644103 -4.4175,-4.170222 -3.13103,-4.20393 -4.76952,-9.666082 -4.91451,-16.383247 -0.0302,-1.401776 0.1318,-4.339178 0.26034,-4.720532 0.1561,-0.462797 0.7775,-1.018169 1.50963,-1.349247 2.09815,-0.948803 5.26713,-1.240812 10.93744,-1.007845 3.3711,0.138505 3.96456,0.209238 4.7842,0.570131 2.16149,0.951736 3.14946,3.885972 3.41626,10.146133 0.25491,5.981421 0.21106,9.692158 -0.16719,14.144954 -0.33436,3.936367 -0.63283,5.674394 -1.03673,6.03707 -0.12924,0.116049 -0.85124,0.110042 -1.53257,-0.01272 z"
           style="opacity:1;fill:#ffffff;fill-opacity:1;stroke:none;stroke-width:0.45957506;stroke-miterlimit:4;stroke-dasharray:none;stroke-opacity:1" />
        <path
           inkscape:connector-curvature="0"
           id="path284"
           d="m 344.9007,68.733342 c -0.22842,-0.255282 -0.34227,-0.543987 -0.58875,-1.493172 -0.45357,-1.74659 -0.97012,-5.122576 -1.42511,-9.314069 -0.34207,-3.151106 -0.54407,-7.052254 -0.644,-12.436839 -0.058,-3.134862 0.26541,-6.235013 0.8238,-7.892779 0.59875,-1.777571 1.75095,-2.967344 3.26659,-3.37311 1.04039,-0.278535 5.33693,-0.751419 8.04918,-0.885905 5.14463,-0.255098 8.59311,0.318974 9.7618,1.625058 0.40124,0.44841 0.47761,0.694113 0.65532,2.108161 0.35874,2.854369 0.44276,5.1543 0.29045,7.949486 -0.26679,4.895904 -1.28676,8.938457 -3.18076,12.606461 -1.34596,2.60667 -3.67109,5.382164 -5.73925,6.850927 -2.75469,1.956317 -8.11694,4.153544 -10.73498,4.398753 -0.31314,0.02933 -0.40118,0.0058 -0.53429,-0.142972 z"
           style="opacity:1;fill:#00ff00;fill-opacity:1;stroke:none;stroke-width:0.46834564;stroke-miterlimit:4;stroke-dasharray:none;stroke-opacity:1" />
        <path
           sodipodi:nodetypes="csccc"
           inkscape:connector-curvature="0"
           id="path286"
           d="m 312.26752,4.772015 c 0,0 9.76903,2.8088712 28.57345,2.4186202 18.80441,-0.3902509 26.28288,-4.3802169 26.28288,-4.3802169 4.75296,56.5000717 2.63662,60.1111477 -24.61629,72.3973957 -29.46875,-8.240958 -31.8096,-22.99113 -30.24004,-70.435799 z"
           style="fill:none;stroke:none;stroke-width:0.09765694px;stroke-linecap:butt;stroke-linejoin:miter;stroke-opacity:1" />
        <path
           sodipodi:nodetypes="csssscccsccssscsccssscssssscccsssscscsssscssssssssssssssscssssssccc"
           inkscape:connector-curvature="0"
           id="path288"
           d="m 339.41061,74.701499 c -9.0716,-2.939444 -14.65405,-6.193816 -18.85417,-10.991305 -4.12438,-4.710989 -6.60238,-10.665049 -7.84924,-19.688324 -0.72659,-5.258284 -1.01842,-11.776018 -0.99102,-19.480264 0.0162,-4.558658 0.56804,-19.9867475 0.56804,-19.9867475 v 0 l 0.0473,-1.2756696 c 7.47251,3.0390748 20.29228,4.4430468 27.1535,4.3660203 9.79215,-0.185049 20.56824,-1.825428 26.29649,-3.9121009 0.57281,-0.2086618 0.74443,-0.2596265 1.18192,-0.4807408 0.0548,0.5272153 0.37969,3.8753614 0.45166,4.9306732 1.36856,19.4632783 1.59021,30.9094883 0.78822,38.1378833 -0.68708,6.19275 -1.7195,9.864195 -3.78074,13.444978 -2.99924,5.210261 -7.42633,8.590284 -17.24557,13.16676 -1.92895,0.899036 -5.49388,2.501527 -5.53803,2.489428 -0.0159,-0.0043 -1.01871,-0.328638 -2.22834,-0.720592 z m 7.06876,-6.871826 c 1.4222,-0.273504 3.21052,-0.85771 5.15945,-1.685474 3.08477,-1.310196 4.76588,-2.361896 6.40929,-4.009653 3.46669,-3.475877 5.52733,-7.748601 6.52984,-13.539589 0.37962,-2.192903 0.59157,-6.564465 0.43212,-8.912689 -0.14345,-2.112754 -0.34861,-3.715988 -0.52824,-4.128187 -0.32673,-0.749733 -1.26783,-1.343752 -2.83334,-1.78838 -1.2026,-0.341563 -5.11946,-0.566088 -7.62014,-0.436808 -3.96995,0.205244 -7.25577,0.625776 -8.1641,1.044867 -2.496,1.151621 -3.44118,4.547623 -3.34535,12.019851 0.07,5.46223 0.1767,7.813871 0.50339,11.097142 0.56876,5.716159 1.19368,9.37276 1.73762,10.167431 0.24322,0.355364 0.5857,0.38952 1.71946,0.171489 z m -9.31608,-2.996884 c 0.48819,-0.669182 0.8448,-3.156133 1.19679,-8.346691 0.29042,-4.282053 0.30415,-5.000323 0.19179,-10.045065 -0.0711,-3.190005 -0.118,-3.982154 -0.33087,-5.585817 -0.50744,-3.822687 -1.55365,-5.653113 -3.58787,-6.277291 -0.51398,-0.157712 -1.32645,-0.251285 -3.34188,-0.384878 -7.22653,-0.479016 -11.69951,0.08567 -13.06474,1.649387 -0.27402,0.313852 -0.3399,0.50538 -0.46018,1.337917 -0.19491,1.348937 -0.25084,4.782027 -0.10784,6.617619 0.47712,6.124028 2.32535,11.11399 5.43776,14.681232 2.09538,2.40159 3.8959,3.643291 7.18028,4.951789 2.12115,0.845061 4.35646,1.446836 5.79049,1.558868 0.85345,0.06667 0.9424,0.05391 1.09633,-0.157069 z m -9.78762,-34.062773 c 2.05436,-0.07741 4.48272,-0.321909 6.1076,-0.614925 3.12245,-0.563081 4.65525,-1.751198 5.02044,-3.891509 0.45222,-2.650452 -0.20228,-7.529889 -1.36859,-10.203043 -0.57555,-1.319201 -2.25081,-3.320359 -3.70435,-4.425026 -1.80675,-1.373072 -3.60296,-2.0451995 -5.86691,-2.1953345 -2.54702,-0.168907 -5.00729,0.4497738 -7.63754,1.9205895 -2.41983,1.353167 -3.47695,2.435572 -4.25182,4.35353 -1.01644,2.51586 -1.07178,6.08048 -0.13776,8.870942 0.44624,1.333117 0.99249,2.311035 1.83788,3.290203 0.64133,0.742826 0.96406,1.016031 1.67137,1.414914 2.02504,1.142023 4.69648,1.616568 8.32967,1.479659 z m 24.49957,-0.35881 c 2.6361,-0.190138 5.09813,-1.232269 7.29794,-3.089111 2.10058,-1.77307 3.05383,-3.351353 3.50481,-5.802935 0.35663,-1.938719 0.12311,-3.944398 -0.68589,-5.890452 -1.14872,-2.763343 -3.64403,-4.922584 -6.65435,-5.7581483 -1.42502,-0.3955351 -3.47729,-0.4589665 -4.87924,-0.1508115 -2.93066,0.6441808 -5.76122,2.6575298 -6.77637,4.8199668 -0.60528,1.289353 -1.10891,3.573741 -1.2448,5.646117 -0.22596,3.444871 0.35,6.034518 1.67083,7.513545 1.64475,1.841766 4.7583,2.928853 7.76707,2.711829 z"
           style="opacity:1;fill:#000000;fill-opacity:0.99447512;stroke:none;stroke-width:0.60522318;stroke-miterlimit:4;stroke-dasharray:none;stroke-opacity:1" />
        <g
           transform="matrix(0.7291937,0.0473183,-0.08277897,1.2756566,325.11965,8.7520647)"
           id="g237"
           style="font-style:normal;font-weight:normal;font-size:10.58333302px;line-height:1.25;font-family:sans-serif;letter-spacing:0px;word-spacing:0px;fill:#ffffff;fill-opacity:1;stroke:none;stroke-width:0.26458332;stroke-opacity:1"
           aria-label="t">
          <path
             sodipodi:nodetypes="ccccccccccccccccscscccc"
             inkscape:connector-curvature="0"
             id="path235"
             style="font-style:normal;font-variant:normal;font-weight:normal;font-stretch:normal;font-size:55.03333282px;font-family:'Book Antiqua';-inkscape-font-specification:'Book Antiqua';fill:#ffffff;fill-opacity:1;stroke:none;stroke-width:0.26458332;stroke-opacity:1"
             d="m 25.808889,21.071028 c -0.778489,1.908454 0.687164,9.961974 0.687164,9.961974 0.941402,4.188473 1.173435,8.842452 3.841598,13.260831 1.142862,0.902885 4.153648,0.06978 5.07876,-0.591178 l 0.77928,0.940511 c 0,0 -0.56069,1.81869 -1.919394,2.668963 -1.038028,0.639628 -2.81961,1.034878 -3.911774,1.039338 C 25.159216,48.054123 24.363255,46.997724 23.343632,44.479998 22.931599,43.709675 23.09207,35.542747 23.09207,34.0021 l -0.423301,-5.457075 c 0,0 -0.714011,-6.459267 -1.786628,-8.887214 C 14.632885,18.614097 9.3906315,18.685755 -0.78237878,20.255688 L -1.9230137,17.456467 c 7.3586403,0.522227 20.9476647,0.205285 22.8051547,-1.492858 1.631282,-5.570975 -1.418089,-8.6787345 -2.826199,-11.9412839 2.078081,-0.8778104 6.001923,-1.675709 8.106648,-2.0325917 0,0 -1.979496,2.5473802 -2.095805,6.9470369 -0.06095,2.3056697 -0.06653,4.7326477 1.83373,7.0268387 1.727458,0.631933 7.308605,0.384616 10.936416,-0.05052 3.62781,-0.435133 7.22817,-1.537115 9.296251,-2.364389 0.0066,1.790732 1.765904,3.730735 1.765904,3.730735 -9.043953,-0.332834 -12.953996,-0.188892 -18.401024,1.023129 -2.885693,0.946098 -3.508063,1.56255 -3.689173,2.768464 z" />
        </g>
      </g>
    </g>
  </g>
</svg>
